<?xml version="1.0" encoding="UTF-8" standalone="no"?>
<!-- Created with Inkscape (http://www.inkscape.org/) -->

<svg
   xmlns:dc="http://purl.org/dc/elements/1.1/"
   xmlns:cc="http://creativecommons.org/ns#"
   xmlns:rdf="http://www.w3.org/1999/02/22-rdf-syntax-ns#"
   xmlns:svg="http://www.w3.org/2000/svg"
   xmlns="http://www.w3.org/2000/svg"
   xmlns:sodipodi="http://sodipodi.sourceforge.net/DTD/sodipodi-0.dtd"
   xmlns:inkscape="http://www.inkscape.org/namespaces/inkscape"
   width="256"
   height="256"
   viewBox="0 0 67.733332 67.733332"
   version="1.1"
   id="svg5005"
   inkscape:version="0.92.1 r15371"
   sodipodi:docname="logo-blue.svg"
   inkscape:export-filename="D:\Documents\设计素材\milesxu\logo-blue.png"
   inkscape:export-xdpi="96"
   inkscape:export-ydpi="96">
  <defs
     id="defs4999" />
  <sodipodi:namedview
     id="base"
     pagecolor="#ffffff"
     bordercolor="#666666"
     borderopacity="1.0"
     inkscape:pageopacity="0.0"
     inkscape:pageshadow="2"
     inkscape:zoom="0.5"
     inkscape:cx="274.85714"
     inkscape:cy="125.71429"
     inkscape:document-units="px"
     inkscape:current-layer="layer2"
     showgrid="false"
     units="px"
     inkscape:pagecheckerboard="true"
     inkscape:window-width="3840"
     inkscape:window-height="2055"
     inkscape:window-x="-13"
     inkscape:window-y="-13"
     inkscape:window-maximized="1" />
  <metadata
     id="metadata5002">
    <rdf:RDF>
      <cc:Work
         rdf:about="">
        <dc:format>image/svg+xml</dc:format>
        <dc:type
           rdf:resource="http://purl.org/dc/dcmitype/StillImage" />
        <dc:title></dc:title>
      </cc:Work>
    </rdf:RDF>
  </metadata>
  <g
     inkscape:label="Layer 1"
     inkscape:groupmode="layer"
     id="layer1"
     transform="translate(0,-229.26667)"
     sodipodi:insensitive="true">
    <circle
       style="fill:#ffffff;stroke-width:0.64801592"
       id="path5550"
       cx="33.866669"
       cy="263.13333"
       r="33.866665" />
  </g>
  <g
     inkscape:groupmode="layer"
     id="layer2"
     inkscape:label="Layer 2"
     style="display:inline">
    <g
       id="g5731"
       transform="matrix(2.4159441,0,0,2.4109668,-48.500939,-46.943531)">
      <path
         inkscape:connector-curvature="0"
         id="path3813"
         d="m 23.19604,39.761014 2.836221,-16.179851 12.488512,21.74996 v 0 l -0.0915,-0.265239"
         style="fill:none;stroke:#000000;stroke-width:0.11015304px;stroke-linecap:butt;stroke-linejoin:miter;stroke-opacity:1" />
      <path
         inkscape:connector-curvature="0"
         id="path3815"
         d="m 23.19604,39.761014 2.973458,-7.957311 12.259795,13.262181 v 0"
         style="fill:none;stroke:#000000;stroke-width:0.11015304px;stroke-linecap:butt;stroke-linejoin:miter;stroke-opacity:1" />
      <path
         inkscape:connector-curvature="0"
         id="path3813-9"
         d="m 44.990863,39.772314 -2.83622,-16.179851 -12.488522,21.74996 v 0 l 0.09149,-0.26524"
         style="fill:none;stroke:#000000;stroke-width:0.11015304px;stroke-linecap:butt;stroke-linejoin:miter;stroke-opacity:1" />
      <path
         inkscape:connector-curvature="0"
         id="path3815-1"
         d="m 44.990863,39.772314 -2.97346,-7.957311 -12.25979,13.26218 v 0"
         style="fill:none;stroke:#000000;stroke-width:0.11015304px;stroke-linecap:butt;stroke-linejoin:miter;stroke-opacity:1" />
    </g>
    <path
       style="fill:#004455;stroke-width:0.2857143"
       d="m 87.2,145.52122 -31.714286,-34.27902 -0.461966,1.0789 c -0.254082,0.59339 -5.836788,15.44619 -12.406013,33.00622 -6.569226,17.56003 -11.981171,31.8902 -12.026545,31.84482 C 30.458807,177.03976 54.54763,39.99099 54.739971,39.782255 54.955855,39.547969 127.23211,165.19651 127.1166,165.60528 c -0.0884,0.31292 -8.07959,14.23327 -8.15694,14.20913 -0.025,-0.008 -14.3168,-15.43972 -31.75966,-34.29319 z"
       id="path5772"
       inkscape:connector-curvature="0"
       transform="scale(0.26458333)" />
    <path
       style="fill:#004455;stroke-width:0.2857143"
       d="m 135.89155,177.78965 c -0.65374,-1.11936 -2.5238,-4.3561 -4.15569,-7.19273 l -2.96706,-5.15753 36.2156,-62.95264 c 32.14699,-55.880283 36.23973,-62.863873 36.43043,-62.162549 0.3801,1.397956 23.95858,136.126999 23.86976,136.393459 -0.0471,0.14134 -5.6063,-14.46774 -12.35376,-32.46461 -6.74745,-17.99687 -12.36843,-32.68688 -12.49107,-32.64446 -0.12263,0.0424 -13.67878,14.6057 -30.12476,32.36284 -16.44598,17.75714 -30.65172,33.08845 -31.5683,34.06957 l -1.66652,1.78385 z"
       id="path5774"
       inkscape:connector-curvature="0"
       transform="scale(0.26458333)" />
    <path
       style="fill:#004455;stroke-width:0.2857143"
       d="m 124.05039,185.27132 c -2.19629,-2.39653 -3.95083,-4.50511 -3.89899,-4.68575 0.0518,-0.18063 1.84897,-3.38063 3.99361,-7.11109 3.60693,-6.27401 3.92536,-6.73469 4.24603,-6.14286 0.19066,0.35189 2.01407,3.52848 4.05202,7.05907 l 3.70535,6.41927 -2.2367,2.43788 c -1.23019,1.34083 -3.05376,3.32503 -4.05239,4.40934 l -1.81568,1.97147 z"
       id="path5776"
       inkscape:connector-curvature="0"
       transform="scale(0.26458333)" />
    <path
       style="fill:#004455;stroke-width:0.2857143"
       d="m 93.914286,226.26799 c 0,-0.35564 25.228714,-44.15887 25.415264,-44.12713 0.20406,0.0347 7.23141,7.63988 7.52154,8.13998 0.15471,0.26668 -4.7565,5.76353 -16.11537,18.03708 -8.98584,9.70943 -16.44669,17.77565 -16.579664,17.92494 -0.132973,0.14928 -0.24177,0.16059 -0.24177,0.0251 z"
       id="path5778"
       inkscape:connector-curvature="0"
       transform="scale(0.26458333)" />
    <path
       style="fill:#004455;stroke-width:0.2857143"
       d="m 145.77143,208.76945 c -8.95714,-9.65992 -16.40625,-17.73312 -16.55356,-17.94045 -0.19579,-0.27556 0.76294,-1.47921 3.564,-4.47441 2.10751,-2.2536 3.89946,-4.1275 3.98212,-4.16424 0.17132,-0.0761 25.52772,43.93265 25.38575,44.05971 -0.0509,0.0456 -7.42117,-7.8207 -16.37831,-17.48061 z"
       id="path5780"
       inkscape:connector-curvature="0"
       transform="scale(0.26458333)" />
  </g>
</svg>
